<?xml version="1.0" encoding="iso-8859-1"?>
<!-- Generator: Adobe Illustrator 19.0.0, SVG Export Plug-In . SVG Version: 6.00 Build 0)  -->
<svg version="1.1" id="Layer_1" xmlns="http://www.w3.org/2000/svg" xmlns:xlink="http://www.w3.org/1999/xlink" x="0px" y="0px"
	 viewBox="0 0 512 512" style="enable-background:new 0 0 512 512;" xml:space="preserve">
<path style="fill:#3689C9;" d="M119.2,388c-4.8-3.2-7.2-8-7.2-13.6V32h288v342.4c0,5.6-2.4,10.4-7.2,13.6L256,476.8L119.2,388z"/>
<circle style="fill:#2E485D;" cx="256" cy="376" r="8"/>
<path style="fill:#4C9FD7;" d="M112,32v232h12c6.4,0,12-5.6,12-12l0,0v-80.8c0-6.4,5.6-11.2,11.2-11.2c0,0,0,0,0.8,0l0,0
	c6.4,0,12-5.6,12-12l0,0V88c0-17.6,14.4-32,32-32h152c13.6,0,24-10.4,24-24H112z"/>
<g>
	<circle style="fill:#2E485D;" cx="160" cy="80" r="8"/>
	<circle style="fill:#2E485D;" cx="352" cy="80" r="8"/>
</g>
<path style="fill:#1B6FAB;" d="M388,104c-6.4,0-12,5.6-12,12v72.8c0,4.8-3.2,9.6-8,11.2c0-8.8-7.2-16-16-16H176c-8.8,0-16,7.2-16,16
	s7.2,16,16,16h176v24H176c-8.8,0-16,7.2-16,16c0,8.8,7.2,16,16,16h176v13.6c0,5.6-4.8,11.2-10.4,11.2l0,0h-0.8c-6.4,0-12,5.6-12,12
	l0,0V344c0,35.2-18.4,68.8-48,88c-15.2,9.6-24,26.4-24,44.8L393.6,388c4-2.4,7.2-7.2,7.2-12l0,0V104H388z"/>
<g>
	<path style="fill:#FFFFFF;" d="M168,232h176c8.8,0,16,7.2,16,16l0,0c0,8.8-7.2,16-16,16H168c-8.8,0-16-7.2-16-16l0,0
		C152,239.2,159.2,232,168,232z"/>
	<path style="fill:#FFFFFF;" d="M168,176h176c8.8,0,16,7.2,16,16l0,0c0,8.8-7.2,16-16,16H168c-8.8,0-16-7.2-16-16l0,0
		C152,183.2,159.2,176,168,176z"/>
</g>
<g>
	<path style="fill:#DDDFE1;" d="M168,264h176c8.8,0,16-7.2,16-16H184C175.2,248,168,255.2,168,264z"/>
	<path style="fill:#DDDFE1;" d="M168,208h176c8.8,0,16-7.2,16-16H184C175.2,192,168,199.2,168,208z"/>
</g>
<path style="fill:#2D4961;" d="M400,0H112C94.4,0,80,14.4,80,32v342.4c0,16,8,31.2,21.6,40l145.6,94.4c5.6,3.2,12,3.2,17.6,0
	l145.6-94.4c13.6-8.8,21.6-24,21.6-40V32C432,14.4,417.6,0,400,0z M400,68.8c-7.2-6.4-15.2-10.4-24.8-12c-1.6-8.8-5.6-17.6-12-24.8
	H400V68.8z M148.8,32c-6.4,7.2-10.4,15.2-12,24.8c-9.6,1.6-17.6,5.6-24.8,12V32H148.8z M256,476.8l-26.4-17.6
	c11.2-4.8,20-12.8,26.4-23.2c6.4,10.4,15.2,18.4,26.4,23.2L256,476.8z M400,374.4c0,5.6-2.4,10.4-7.2,13.6l-92,60
	c-20.8-1.6-36.8-19.2-36.8-40c0-4.8-3.2-8-8-8c-4.8,0-8,3.2-8,8c0,20.8-16,38.4-36.8,40l-92-60c-4.8-3.2-7.2-8-7.2-13.6V104
	c0-17.6,14.4-32,32-32c4.8,0,8-3.2,8-8c0-17.6,14.4-32,32-32h144c17.6,0,32,14.4,32,32c0,4.8,3.2,8,8,8c17.6,0,32,14.4,32,32V374.4z
	"/>
<path style="fill:#44637F;" d="M80,32v272l0,0c8.8,0,16-7.2,16-16V32c0-8.8,7.2-16,16-16h272c8.8,0,16-7.2,16-16H112
	C94.4,0,80,14.4,80,32z"/>
<path style="fill:#123247;" d="M410.4,415.2c13.6-8.8,21.6-24,21.6-40V56l0,0c-8.8,0-16,7.2-16,16v304.8c0,8-4,15.2-10.4,20
	l-136,90.4c-8,5.6-13.6,15.2-13.6,24.8l0,0c3.2,0,6.4-0.8,8.8-2.4L410.4,415.2z"/>
<g>
</g>
<g>
</g>
<g>
</g>
<g>
</g>
<g>
</g>
<g>
</g>
<g>
</g>
<g>
</g>
<g>
</g>
<g>
</g>
<g>
</g>
<g>
</g>
<g>
</g>
<g>
</g>
<g>
</g>
</svg>
