<?xml version="1.0" encoding="iso-8859-1"?>
<!-- Generator: Adobe Illustrator 19.0.0, SVG Export Plug-In . SVG Version: 6.00 Build 0)  -->
<svg version="1.1" id="Layer_1" xmlns="http://www.w3.org/2000/svg" xmlns:xlink="http://www.w3.org/1999/xlink" x="0px" y="0px"
	 viewBox="0 0 512.002 512.002" style="enable-background:new 0 0 512.002 512.002;" xml:space="preserve">
<path style="fill:#3CB54A;" d="M119.287,388.062c-4.552-2.96-7.288-8.016-7.28-13.439V31.999h287.987v342.624
	c0.008,5.424-2.728,10.48-7.28,13.439l-136.714,88.796L119.287,388.062z"/>
<path style="fill:#89C763;" d="M112.008,31.999v231.989h11.999c6.624,0,11.999-5.376,11.999-11.999l0,0v-81.196
	c0.16-6.136,5.272-10.983,11.415-10.815c0.144,0,0.288,0.008,0.424,0.016l0,0c6.624,0.088,12.071-5.216,12.159-11.839
	c0-0.056,0-0.104,0-0.16V87.996c0-17.671,14.327-31.999,31.998-31.999h151.993c13.255,0,23.999-10.743,23.999-23.999H112.008z"/>
<g>
	<path style="fill:#0E9347;" d="M287.44,165.032l-15.999-39.998c-1.624-4.112-6.272-6.12-10.384-4.496
		c-2.056,0.816-3.688,2.44-4.496,4.496l-15.999,39.998c-0.76,1.904-0.76,4.016,0,5.92l15.999,39.998
		c1.624,4.112,6.272,6.12,10.384,4.496c2.056-0.816,3.688-2.44,4.496-4.496l15.999-39.998
		C288.192,169.048,288.192,166.936,287.44,165.032z"/>
	<path style="fill:#0E9347;" d="M287.44,277.027l-15.999-39.998c-1.624-4.112-6.272-6.12-10.384-4.496
		c-2.056,0.816-3.688,2.44-4.496,4.496l-15.999,39.998c-0.76,1.904-0.76,4.016,0,5.92l15.999,39.998
		c1.624,4.112,6.272,6.12,10.384,4.496c2.056-0.816,3.688-2.44,4.496-4.496l15.999-39.998
		C288.192,281.043,288.192,278.931,287.44,277.027z"/>
	<path style="fill:#0E9347;" d="M387.995,103.995c-6.624,0-11.999,5.376-11.999,11.999v73.197c0,5.968-4.832,10.799-10.799,10.799
		c-0.024,0-0.056,0-0.08,0h-1.12c-6.584-0.048-11.951,5.256-11.999,11.839c0,0.024,0,0.056,0,0.08l0,0l-29.039-11.599
		c-1.904-0.76-4.016-0.76-5.92,0L277.04,216.31c-4.112,1.624-6.12,6.272-4.496,10.384c0.816,2.056,2.44,3.688,4.496,4.496
		l39.998,15.999c1.904,0.76,4.016,0.76,5.92,0l29.039-11.359v49.438c-0.048,5.968-4.912,10.768-10.88,10.72l0,0h-1.04
		c-6.624-0.048-12.031,5.296-12.079,11.919c0,0.024,0,0.056,0,0.08v35.998c-0.056,35.566-18.119,68.693-47.998,87.996
		c-15.015,9.88-24.039,26.663-23.999,44.638l136.714-88.556c4.168-2.68,6.856-7.144,7.28-12.079l0,0V103.995H387.995z"/>
	<path style="fill:#0E9347;" d="M210.963,247.428l39.998-15.999c4.112-1.624,6.12-6.272,4.496-10.384
		c-0.816-2.056-2.44-3.688-4.496-4.496l-39.998-15.999c-1.904-0.76-4.016-0.76-5.92,0l-39.998,15.999
		c-4.112,1.624-6.12,6.272-4.496,10.384c0.816,2.056,2.44,3.688,4.496,4.496l39.998,15.999
		C206.939,248.188,209.059,248.188,210.963,247.428z"/>
</g>
<g>
	<path style="fill:#FFFFFF;" d="M279.44,157.033l-15.999-39.998c-1.624-4.112-6.272-6.12-10.384-4.496
		c-2.056,0.816-3.688,2.44-4.496,4.496l-15.999,39.998c-0.76,1.904-0.76,4.016,0,5.92l15.999,39.998
		c1.624,4.112,6.272,6.12,10.383,4.496c2.056-0.816,3.688-2.44,4.496-4.496l15.999-39.998
		C280.192,161.048,280.192,158.937,279.44,157.033z"/>
	<path style="fill:#FFFFFF;" d="M279.44,269.027l-15.999-39.998c-1.624-4.112-6.272-6.12-10.384-4.496
		c-2.056,0.816-3.688,2.44-4.496,4.496l-15.999,39.998c-0.76,1.904-0.76,4.016,0,5.92l15.999,39.998
		c1.624,4.112,6.272,6.12,10.383,4.496c2.056-0.816,3.688-2.44,4.496-4.496l15.999-39.998
		C280.192,273.043,280.192,270.931,279.44,269.027z"/>
	<path style="fill:#FFFFFF;" d="M314.958,239.429l39.998-15.999c4.112-1.624,6.12-6.272,4.496-10.384
		c-0.816-2.056-2.44-3.688-4.496-4.496l-39.998-15.999c-1.904-0.76-4.016-0.76-5.92,0L269.04,208.55
		c-4.112,1.624-6.12,6.272-4.496,10.384c0.816,2.056,2.44,3.688,4.496,4.496l39.998,15.999
		C310.934,240.189,313.054,240.189,314.958,239.429z"/>
	<path style="fill:#FFFFFF;" d="M202.964,239.429l39.998-15.999c4.112-1.624,6.12-6.272,4.496-10.384
		c-0.816-2.056-2.44-3.688-4.496-4.496l-39.998-15.999c-1.904-0.76-4.016-0.76-5.92,0l-39.998,15.999
		c-4.112,1.624-6.12,6.272-4.496,10.384c0.816,2.056,2.44,3.688,4.496,4.496l39.998,15.999
		C198.94,240.189,201.06,240.189,202.964,239.429z"/>
</g>
<g>
	<circle style="fill:#2D4961;" cx="255.985" cy="375.982" r="8"/>
	<circle style="fill:#2D4961;" cx="255.985" cy="87.996" r="8"/>
	<circle style="fill:#2D4961;" cx="311.982" cy="159.993" r="8"/>
	<circle style="fill:#2D4961;" cx="311.982" cy="271.987" r="8"/>
	<circle style="fill:#2D4961;" cx="207.987" cy="159.993" r="8"/>
	<circle style="fill:#2D4961;" cx="207.987" cy="271.987" r="8"/>
	<circle style="fill:#2D4961;" cx="255.985" cy="55.997" r="8"/>
	<circle style="fill:#2D4961;" cx="255.985" cy="343.984" r="8"/>
</g>
<g>
	<path style="fill:#DDDFE1;" d="M263.441,314.945l15.999-39.998c0.76-1.904,0.76-4.016,0-5.92l-15.999-39.998
		c-1.2-3.04-7.44,0-7.44,10.959v79.996C259.273,319.985,262.225,317.993,263.441,314.945z"/>
	<path style="fill:#DDDFE1;" d="M263.441,202.951l15.999-39.998c0.76-1.904,0.76-4.016,0-5.92l-15.999-39.998
		c-1.2-3.04-7.44,0-7.44,10.959v79.996C259.273,207.99,262.225,205.998,263.441,202.951z"/>
	<path style="fill:#DDDFE1;" d="M269.04,223.43l39.998,15.999c1.904,0.76,4.016,0.76,5.92,0l39.998-15.999
		c3.048-1.216,5.04-4.16,5.04-7.44h-95.995C263.993,219.27,265.993,222.214,269.04,223.43z"/>
	<path style="fill:#DDDFE1;" d="M157.046,223.43l39.998,15.999c1.904,0.76,4.016,0.76,5.92,0l39.998-15.999
		c3.048-1.216,5.04-4.16,5.04-7.44h-95.996C151.998,219.27,153.998,222.214,157.046,223.43z"/>
</g>
<path style="fill:#2D4961;" d="M399.994,0H112.008C94.337,0,80.009,14.327,80.009,31.999v342.624
	c0.08,16.159,8.288,31.191,21.839,39.998l145.433,94.796c5.304,3.448,12.135,3.448,17.439,0l145.433-94.556
	c13.551-8.808,21.759-23.839,21.839-39.998V31.999C431.993,14.327,417.665,0,399.994,0z M399.994,68.477
	c-6.872-6.24-15.399-10.352-24.559-11.839c-1.496-9.2-5.64-17.759-11.919-24.639h36.478V68.477z M148.486,31.999
	c-6.264,6.864-10.408,15.391-11.919,24.559c-9.168,1.512-17.695,5.656-24.559,11.919V31.999H148.486z M256.001,476.858
	l-26.479-17.199c11.047-4.6,20.327-12.623,26.479-22.879c6.152,10.256,15.431,18.279,26.479,22.879L256.001,476.858z
	 M399.994,374.622c0.008,5.424-2.728,10.48-7.28,13.439l-91.756,59.917c-20.895-1.592-37.022-19.039-36.958-39.998
	c0-4.416-3.584-8-8-8s-8,3.584-8,8c0.064,20.959-16.063,38.406-36.958,39.998l-91.756-59.917c-4.552-2.96-7.288-8.016-7.28-13.439
	V103.995c0-17.671,14.327-31.998,31.998-31.998c4.416,0,8-3.584,8-8c0-17.671,14.327-31.999,31.999-31.999h143.993
	c17.671,0,31.999,14.327,31.999,31.999c0,4.416,3.584,8,8,8c17.671,0,31.999,14.327,31.999,31.998L399.994,374.622L399.994,374.622z
	"/>
<path style="fill:#44637F;" d="M80.009,31.999v271.987l0,0c8.84,0,15.999-7.16,15.999-15.999V31.999
	c0-8.84,7.16-15.999,15.999-15.999h271.987c8.84,0,15.999-7.16,15.999-15.999H112.008C94.329,0,80.009,14.327,80.009,31.999z"/>
<path style="fill:#123247;" d="M410.154,414.861c13.551-8.808,21.759-23.839,21.839-39.998V55.997l0,0
	c-8.84,0-15.999,7.16-15.999,15.999v304.466c0,8.04-4.024,15.551-10.719,19.999L269.28,487.097
	c-8.304,5.56-13.287,14.887-13.279,24.879l0,0c3.096,0.008,6.12-0.88,8.72-2.56L410.154,414.861z"/>
<g>
</g>
<g>
</g>
<g>
</g>
<g>
</g>
<g>
</g>
<g>
</g>
<g>
</g>
<g>
</g>
<g>
</g>
<g>
</g>
<g>
</g>
<g>
</g>
<g>
</g>
<g>
</g>
<g>
</g>
</svg>
