<?xml version="1.0" standalone="no"?><svg xmlns="http://www.w3.org/2000/svg" viewBox="0 0 1440 320"><path fill="#F5CB5C" fill-opacity="1" d="M0,96L18.5,112C36.9,128,74,160,111,149.3C147.7,139,185,85,222,80C258.5,75,295,117,332,133.3C369.2,149,406,139,443,128C480,117,517,107,554,128C590.8,149,628,203,665,218.7C701.5,235,738,213,775,181.3C812.3,149,849,107,886,122.7C923.1,139,960,213,997,229.3C1033.8,245,1071,203,1108,176C1144.6,149,1182,139,1218,128C1255.4,117,1292,107,1329,90.7C1366.2,75,1403,53,1422,42.7L1440,32L1440,0L1421.5,0C1403.1,0,1366,0,1329,0C1292.3,0,1255,0,1218,0C1181.5,0,1145,0,1108,0C1070.8,0,1034,0,997,0C960,0,923,0,886,0C849.2,0,812,0,775,0C738.5,0,702,0,665,0C627.7,0,591,0,554,0C516.9,0,480,0,443,0C406.2,0,369,0,332,0C295.4,0,258,0,222,0C184.6,0,148,0,111,0C73.8,0,37,0,18,0L0,0Z"></path></svg>