<?xml version="1.0" standalone="no"?><svg xmlns="http://www.w3.org/2000/svg" viewBox="0 0 1440 320"><path fill="#F5CB5C" fill-opacity="1" d="M0,288L30,288C60,288,120,288,180,277.3C240,267,300,245,360,224C420,203,480,181,540,186.7C600,192,660,224,720,229.3C780,235,840,213,900,192C960,171,1020,149,1080,170.7C1140,192,1200,256,1260,256C1320,256,1380,192,1410,160L1440,128L1440,320L1410,320C1380,320,1320,320,1260,320C1200,320,1140,320,1080,320C1020,320,960,320,900,320C840,320,780,320,720,320C660,320,600,320,540,320C480,320,420,320,360,320C300,320,240,320,180,320C120,320,60,320,30,320L0,320Z"></path></svg>