<?xml version="1.0" standalone="no"?><svg xmlns="http://www.w3.org/2000/svg" viewBox="0 90 1440 200"><path fill="#1c1e23" fill-opacity="1" d="M0,224L26.7,213.3C53.3,203,107,181,160,154.7C213.3,128,267,96,320,101.3C373.3,107,427,149,480,170.7C533.3,192,587,192,640,192C693.3,192,747,192,800,186.7C853.3,181,907,171,960,186.7C1013.3,203,1067,245,1120,266.7C1173.3,288,1227,288,1280,277.3C1333.3,267,1387,245,1413,234.7L1440,224L1440,0L1413.3,0C1386.7,0,1333,0,1280,0C1226.7,0,1173,0,1120,0C1066.7,0,1013,0,960,0C906.7,0,853,0,800,0C746.7,0,693,0,640,0C586.7,0,533,0,480,0C426.7,0,373,0,320,0C266.7,0,213,0,160,0C106.7,0,53,0,27,0L0,0Z"></path></svg>